<svg xmlns="http://www.w3.org/2000/svg" viewBox="0 0 100 100" role="img" aria-label="AdminHelper">
  <style>
    /* Favicon has no CSS context (loaded via <link rel=icon>) so currentColor can't
       follow the app theme; adapt to the browser chrome instead. */
    path { fill: #16181c; }
    @media (prefers-color-scheme: dark) { path { fill: #ededee; } }
  </style>
  <!-- fill="#808080" is a neutral fallback for renderers that ignore <style>; the CSS
       above overrides it (CSS beats the presentation attribute) where <style> is applied. -->
  <path fill="#808080" fill-rule="evenodd" clip-rule="evenodd" d="M28 0C12.536 0 0 12.536 0 28v44c0 15.464 12.536 28 28 28h44c15.464 0 28-12.536 28-28V28C100 12.536 87.464 0 72 0H28Zm22 26.5L24.5 52a6 6 0 0 0 8.485 8.485L50 43.97l16.515 16.515A6 6 0 0 0 75 51.999L50 26.5ZM31 66a6 6 0 0 0 0 12h38a6 6 0 0 0 0-12H31Z"/>
</svg>
